<?xml version="1.0" encoding="UTF-8" standalone="no"?>
<!DOCTYPE svg PUBLIC "-//W3C//DTD SVG 1.1//EN"
 "http://www.w3.org/Graphics/SVG/1.1/DTD/svg11.dtd">
<!-- Generated by graphviz version 2.42.4 (0)
 -->
<!-- Title: G Pages: 1 -->
<svg width="715pt" height="601pt"
 viewBox="0.00 0.00 714.80 600.80" xmlns="http://www.w3.org/2000/svg" xmlns:xlink="http://www.w3.org/1999/xlink">
<g id="graph0" class="graph" transform="scale(1 1) rotate(0) translate(14.4 586.4)">
<title>G</title>
<polygon fill="white" stroke="transparent" points="-14.4,14.4 -14.4,-586.4 700.4,-586.4 700.4,14.4 -14.4,14.4"/>
<!-- base&#45;&gt;e -->
<g id="edge1" class="edge">
<title>base&#45;&gt;e</title>
<path fill="none" stroke="#5b7292" stroke-width="1.2" d="M129.01,-527.75C139.14,-515.8 152.16,-500.44 164.27,-486.15"/>
<polygon fill="#5b7292" stroke="#5b7292" stroke-width="1.2" points="166.38,-487.45 169.04,-480.53 162.64,-484.28 166.38,-487.45"/>
<text text-anchor="middle" x="159.5" y="-505" font-family="Noto Sans CJK SC" font-size="10.00">E01</text>
</g>
<!-- new&#45;&gt;e -->
<g id="edge2" class="edge">
<title>new&#45;&gt;e</title>
<path fill="none" stroke="#5b7292" stroke-width="1.2" d="M271.79,-527.75C261.54,-515.8 248.38,-500.44 236.13,-486.15"/>
<polygon fill="#5b7292" stroke="#5b7292" stroke-width="1.2" points="237.72,-484.25 231.31,-480.53 234,-487.44 237.72,-484.25"/>
<text text-anchor="middle" x="266.5" y="-505" font-family="Noto Sans CJK SC" font-size="10.00">E02</text>
</g>
<!-- e&#45;&gt;bad -->
<g id="edge3" class="edge">
<title>e&#45;&gt;bad</title>
<path fill="none" stroke="#5b7292" stroke-width="1.2" d="M185.53,-402C181.04,-389.62 176.21,-376.25 172.09,-364.88"/>
<polygon fill="#5b7292" stroke="#5b7292" stroke-width="1.2" points="174.32,-363.83 169.63,-358.08 169.71,-365.5 174.32,-363.83"/>
<text text-anchor="middle" x="203.5" y="-376" font-family="Noto Sans CJK SC" font-size="10.00">E03 不合格</text>
</g>
<!-- e&#45;&gt;core -->
<g id="edge4" class="edge">
<title>e&#45;&gt;core</title>
<path fill="none" stroke="#5b7292" stroke-width="1.2" d="M252.68,-410.21C278.39,-394.7 308.86,-376.31 332.83,-361.84"/>
<polygon fill="#5b7292" stroke="#5b7292" stroke-width="1.2" points="334.37,-363.78 339.1,-358.06 331.84,-359.58 334.37,-363.78"/>
<text text-anchor="middle" x="320.5" y="-376" font-family="Noto Sans CJK SC" font-size="10.00">E04</text>
</g>
<!-- core&#45;&gt;author -->
<g id="edge5" class="edge">
<title>core&#45;&gt;author</title>
<path fill="none" stroke="#5b7292" stroke-width="1.2" d="M328.52,-313.78C304.46,-302.56 274.45,-288.56 247.72,-276.09"/>
<polygon fill="#5b7292" stroke="#5b7292" stroke-width="1.2" points="248.74,-273.86 241.36,-273.12 246.67,-278.3 248.74,-273.86"/>
<text text-anchor="middle" x="302.5" y="-291" font-family="Noto Sans CJK SC" font-size="10.00">E05</text>
</g>
<!-- core&#45;&gt;biz -->
<g id="edge6" class="edge">
<title>core&#45;&gt;biz</title>
<path fill="none" stroke="#5b7292" stroke-width="1.2" d="M374,-313.55C374,-301.38 374,-286 374,-272.84"/>
<polygon fill="#5b7292" stroke="#5b7292" stroke-width="1.2" points="376.45,-272.79 374,-265.79 371.55,-272.79 376.45,-272.79"/>
<text text-anchor="middle" x="382.5" y="-291" font-family="Noto Sans CJK SC" font-size="10.00">E06</text>
</g>
<!-- core&#45;&gt;mig -->
<g id="edge7" class="edge">
<title>core&#45;&gt;mig</title>
<path fill="none" stroke="#5b7292" stroke-width="1.2" d="M423.44,-313.9C455.33,-300.28 496.87,-282.55 529.98,-268.41"/>
<polygon fill="#5b7292" stroke="#5b7292" stroke-width="1.2" points="531.01,-270.64 536.48,-265.64 529.08,-266.13 531.01,-270.64"/>
<text text-anchor="middle" x="488.5" y="-291" font-family="Noto Sans CJK SC" font-size="10.00">E07</text>
</g>
<!-- author&#45;&gt;gate -->
<g id="edge8" class="edge">
<title>author&#45;&gt;gate</title>
<path fill="none" stroke="#5b7292" stroke-width="1.2" d="M229.21,-213.97C256.34,-198.23 290.13,-178.64 318.24,-162.34"/>
<polygon fill="#5b7292" stroke="#5b7292" stroke-width="1.2" points="319.68,-164.33 324.51,-158.7 317.23,-160.09 319.68,-164.33"/>
<text text-anchor="middle" x="279.5" y="-191" font-family="Noto Sans CJK SC" font-size="10.00">E08</text>
</g>
<!-- biz&#45;&gt;gate -->
<g id="edge9" class="edge">
<title>biz&#45;&gt;gate</title>
<path fill="none" stroke="#5b7292" stroke-width="1.2" d="M374,-221.34C374,-209.74 374,-194.83 374,-180.44"/>
<polygon fill="#5b7292" stroke="#5b7292" stroke-width="1.2" points="376.45,-180.43 374,-173.43 371.55,-180.43 376.45,-180.43"/>
<text text-anchor="middle" x="382.5" y="-191" font-family="Noto Sans CJK SC" font-size="10.00">E09</text>
</g>
<!-- mig&#45;&gt;gate -->
<g id="edge10" class="edge">
<title>mig&#45;&gt;gate</title>
<path fill="none" stroke="#5b7292" stroke-width="1.2" d="M546.12,-221.34C514.28,-204.44 469.18,-180.51 433.14,-161.38"/>
<polygon fill="#5b7292" stroke="#5b7292" stroke-width="1.2" points="433.85,-158.99 426.52,-157.87 431.55,-163.32 433.85,-158.99"/>
<text text-anchor="middle" x="506.5" y="-191" font-family="Noto Sans CJK SC" font-size="10.00">E10</text>
</g>
<!-- gate&#45;&gt;candidate -->
<g id="edge11" class="edge">
<title>gate&#45;&gt;candidate</title>
<path fill="none" stroke="#5b7292" stroke-width="1.2" d="M342.13,-94.2C328.46,-79.7 312.72,-63.01 299.92,-49.43"/>
<polygon fill="#5b7292" stroke="#5b7292" stroke-width="1.2" points="301.58,-47.62 294.99,-44.2 298.01,-50.98 301.58,-47.62"/>
<text text-anchor="middle" x="332.5" y="-62" font-family="Noto Sans CJK SC" font-size="10.00">E11 否</text>
</g>
<!-- gate&#45;&gt;approved -->
<g id="edge12" class="edge">
<title>gate&#45;&gt;approved</title>
<path fill="none" stroke="#5b7292" stroke-width="1.2" d="M405.87,-94.2C419.54,-79.7 435.28,-63.01 448.08,-49.43"/>
<polygon fill="#5b7292" stroke="#5b7292" stroke-width="1.2" points="449.99,-50.98 453.01,-44.2 446.42,-47.62 449.99,-50.98"/>
<text text-anchor="middle" x="452.5" y="-62" font-family="Noto Sans CJK SC" font-size="10.00">E12 是</text>
</g>
<!-- base -->
<g id="node1" class="node">
<title>base</title>
<path fill="#eaf3ff" stroke="#3265a3" stroke-width="1.3" d="M187,-572C187,-572 35,-572 35,-572 29,-572 23,-566 23,-560 23,-560 23,-540 23,-540 23,-534 29,-528 35,-528 35,-528 187,-528 187,-528 193,-528 199,-534 199,-540 199,-540 199,-560 199,-560 199,-566 193,-572 187,-572"/>
<text text-anchor="middle" x="111" y="-553.8" font-family="Noto Sans CJK SC" font-size="14.00">原 TST&#45;001..048</text>
<text text-anchor="middle" x="111" y="-538.8" font-family="Noto Sans CJK SC" font-size="14.00">新版本回归 / 原状态保留</text>
</g>
<!-- new -->
<g id="node2" class="node">
<title>new</title>
<path fill="#fff3df" stroke="#c47724" stroke-width="1.3" d="M346.5,-572C346.5,-572 233.5,-572 233.5,-572 227.5,-572 221.5,-566 221.5,-560 221.5,-560 221.5,-540 221.5,-540 221.5,-534 227.5,-528 233.5,-528 233.5,-528 346.5,-528 346.5,-528 352.5,-528 358.5,-534 358.5,-540 358.5,-540 358.5,-560 358.5,-560 358.5,-566 352.5,-572 346.5,-572"/>
<text text-anchor="middle" x="290" y="-553.8" font-family="Noto Sans CJK SC" font-size="14.00">新 TST&#45;049..080</text>
<text text-anchor="middle" x="290" y="-538.8" font-family="Noto Sans CJK SC" font-size="14.00">新创作与运行验收</text>
</g>
<!-- e -->
<g id="node3" class="node">
<title>e</title>
<path fill="#fff7e8" stroke="#a87527" stroke-width="1.3" d="M188.28,-484.42C188.28,-484.42 11.72,-445.58 11.72,-445.58 5.86,-444.29 5.86,-441.71 11.72,-440.42 11.72,-440.42 188.28,-401.58 188.28,-401.58 194.14,-400.29 205.86,-400.29 211.72,-401.58 211.72,-401.58 388.28,-440.42 388.28,-440.42 394.14,-441.71 394.14,-444.29 388.28,-445.58 388.28,-445.58 211.72,-484.42 211.72,-484.42 205.86,-485.71 194.14,-485.71 188.28,-484.42"/>
<text text-anchor="middle" x="200" y="-446.8" font-family="Noto Sans CJK SC" font-size="14.00">证据身份过滤</text>
<text text-anchor="middle" x="200" y="-431.8" font-family="Noto Sans CJK SC" font-size="14.00">commit / 版本 / scope / SHA</text>
</g>
<!-- bad -->
<g id="node4" class="node">
<title>bad</title>
<path fill="#fdeeea" stroke="#b05243" stroke-width="1.3" d="M244,-358C244,-358 80,-358 80,-358 74,-358 68,-352 68,-346 68,-346 68,-326 68,-326 68,-320 74,-314 80,-314 80,-314 244,-314 244,-314 250,-314 256,-320 256,-326 256,-326 256,-346 256,-346 256,-352 250,-358 244,-358"/>
<text text-anchor="middle" x="162" y="-339.8" font-family="Noto Sans CJK SC" font-size="14.00">缺证据 / 版本不符 / 未运行</text>
<text text-anchor="middle" x="162" y="-324.8" font-family="Noto Sans CJK SC" font-size="14.00">不代签，返回对应工作包</text>
</g>
<!-- core -->
<g id="node5" class="node">
<title>core</title>
<path fill="#eaf3ff" stroke="#3265a3" stroke-width="1.3" d="M458,-358C458,-358 290,-358 290,-358 284,-358 278,-352 278,-346 278,-346 278,-326 278,-326 278,-320 284,-314 290,-314 290,-314 458,-314 458,-314 464,-314 470,-320 470,-326 470,-326 470,-346 470,-346 470,-352 464,-358 458,-358"/>
<text text-anchor="middle" x="374" y="-339.8" font-family="Noto Sans CJK SC" font-size="14.00">CORE</text>
<text text-anchor="middle" x="374" y="-324.8" font-family="Noto Sans CJK SC" font-size="14.00">基础协议 / 实际 Host / 兼容</text>
</g>
<!-- author -->
<g id="node6" class="node">
<title>author</title>
<path fill="#fff3df" stroke="#c47724" stroke-width="1.3" d="M250,-273C250,-273 110,-273 110,-273 104,-273 98,-267 98,-261 98,-261 98,-226 98,-226 98,-220 104,-214 110,-214 110,-214 250,-214 250,-214 256,-214 262,-220 262,-226 262,-226 262,-261 262,-261 262,-267 256,-273 250,-273"/>
<text text-anchor="middle" x="180" y="-254.8" font-family="Noto Sans CJK SC" font-size="14.00">AUTHORING</text>
<text text-anchor="middle" x="180" y="-239.8" font-family="Noto Sans CJK SC" font-size="14.00">原 @ / 真实源码与预览</text>
<text text-anchor="middle" x="180" y="-224.8" font-family="Noto Sans CJK SC" font-size="14.00">原 Agent / 保存重开</text>
</g>
<!-- biz -->
<g id="node7" class="node">
<title>biz</title>
<path fill="#fff3df" stroke="#c47724" stroke-width="1.3" d="M451.5,-265.5C451.5,-265.5 296.5,-265.5 296.5,-265.5 290.5,-265.5 284.5,-259.5 284.5,-253.5 284.5,-253.5 284.5,-233.5 284.5,-233.5 284.5,-227.5 290.5,-221.5 296.5,-221.5 296.5,-221.5 451.5,-221.5 451.5,-221.5 457.5,-221.5 463.5,-227.5 463.5,-233.5 463.5,-233.5 463.5,-253.5 463.5,-253.5 463.5,-259.5 457.5,-265.5 451.5,-265.5"/>
<text text-anchor="middle" x="374" y="-247.3" font-family="Noto Sans CJK SC" font-size="14.00">BUSINESS&#45;WRITE</text>
<text text-anchor="middle" x="374" y="-232.3" font-family="Noto Sans CJK SC" font-size="14.00">每个动作真实回执与核实</text>
</g>
<!-- mig -->
<g id="node8" class="node">
<title>mig</title>
<path fill="#fff3df" stroke="#c47724" stroke-width="1.3" d="M674,-265.5C674,-265.5 498,-265.5 498,-265.5 492,-265.5 486,-259.5 486,-253.5 486,-253.5 486,-233.5 486,-233.5 486,-227.5 492,-221.5 498,-221.5 498,-221.5 674,-221.5 674,-221.5 680,-221.5 686,-227.5 686,-233.5 686,-233.5 686,-253.5 686,-253.5 686,-259.5 680,-265.5 674,-265.5"/>
<text text-anchor="middle" x="586" y="-247.3" font-family="Noto Sans CJK SC" font-size="14.00">DATA&#45;CUTOVER</text>
<text text-anchor="middle" x="586" y="-232.3" font-family="Noto Sans CJK SC" font-size="14.00">真实迁移 / 唯一 writer / 回退</text>
</g>
<!-- gate -->
<g id="node9" class="node">
<title>gate</title>
<path fill="#fff7e8" stroke="#a87527" stroke-width="1.3" d="M362.48,-169.64C362.48,-169.64 234.52,-132.36 234.52,-132.36 228.76,-130.68 228.76,-127.32 234.52,-125.64 234.52,-125.64 362.48,-88.36 362.48,-88.36 368.24,-86.68 379.76,-86.68 385.52,-88.36 385.52,-88.36 513.48,-125.64 513.48,-125.64 519.24,-127.32 519.24,-130.68 513.48,-132.36 513.48,-132.36 385.52,-169.64 385.52,-169.64 379.76,-171.32 368.24,-171.32 362.48,-169.64"/>
<text text-anchor="middle" x="374" y="-132.8" font-family="Noto Sans CJK SC" font-size="14.00">本次承诺范围</text>
<text text-anchor="middle" x="374" y="-117.8" font-family="Noto Sans CJK SC" font-size="14.00">全部强制项均满足？</text>
</g>
<!-- candidate -->
<g id="node10" class="node">
<title>candidate</title>
<path fill="#fdeeea" stroke="#b05243" stroke-width="1.3" d="M342,-44C342,-44 208,-44 208,-44 202,-44 196,-38 196,-32 196,-32 196,-12 196,-12 196,-6 202,0 208,0 208,0 342,0 342,0 348,0 354,-6 354,-12 354,-12 354,-32 354,-32 354,-38 348,-44 342,-44"/>
<text text-anchor="middle" x="275" y="-25.8" font-family="Noto Sans CJK SC" font-size="14.00">仅已验范围的候选</text>
<text text-anchor="middle" x="275" y="-10.8" font-family="Noto Sans CJK SC" font-size="14.00">其余 NOT_ACCEPTED</text>
</g>
<!-- approved -->
<g id="node11" class="node">
<title>approved</title>
<path fill="#f3f5f8" stroke="#6a778c" stroke-width="1.3" d="M557.5,-44C557.5,-44 388.5,-44 388.5,-44 382.5,-44 376.5,-38 376.5,-32 376.5,-32 376.5,-12 376.5,-12 376.5,-6 382.5,0 388.5,0 388.5,0 557.5,0 557.5,0 563.5,0 569.5,-6 569.5,-12 569.5,-12 569.5,-32 569.5,-32 569.5,-38 563.5,-44 557.5,-44"/>
<text text-anchor="middle" x="473" y="-25.8" font-family="Noto Sans CJK SC" font-size="14.00">A / V / R 明确签认</text>
<text text-anchor="middle" x="473" y="-10.8" font-family="Noto Sans CJK SC" font-size="14.00">包 hash与运行identity一致</text>
</g>
</g>
</svg>
