<?xml version="1.0" encoding="UTF-8" standalone="no"?>
<!DOCTYPE svg PUBLIC "-//W3C//DTD SVG 1.1//EN"
 "http://www.w3.org/Graphics/SVG/1.1/DTD/svg11.dtd">
<!-- Generated by graphviz version 2.42.4 (0)
 -->
<!-- Title: G Pages: 1 -->
<svg width="817pt" height="531pt"
 viewBox="0.00 0.00 816.80 530.80" xmlns="http://www.w3.org/2000/svg" xmlns:xlink="http://www.w3.org/1999/xlink">
<g id="graph0" class="graph" transform="scale(1 1) rotate(0) translate(14.4 516.4)">
<title>G</title>
<polygon fill="white" stroke="transparent" points="-14.4,14.4 -14.4,-516.4 802.4,-516.4 802.4,14.4 -14.4,14.4"/>
<!-- ui&#45;&gt;local -->
<g id="edge1" class="edge">
<title>ui&#45;&gt;local</title>
<path fill="none" stroke="#5b7292" stroke-width="1.2" d="M362.75,-460.57C269.3,-442.29 140,-417 140,-417 140,-417 106.63,-281.11 91.88,-221.01"/>
<polygon fill="#5b7292" stroke="#5b7292" stroke-width="1.2" points="94.22,-220.29 90.17,-214.07 89.46,-221.46 94.22,-220.29"/>
<text text-anchor="middle" x="134.5" y="-333.5" font-family="Noto Sans CJK SC" font-size="10.00">E01</text>
</g>
<!-- ui&#45;&gt;attach -->
<g id="edge3" class="edge">
<title>ui&#45;&gt;attach</title>
<path fill="none" stroke="#5b7292" stroke-width="1.2" d="M457,-457.63C457,-447.48 457,-435.21 457,-424.31"/>
<polygon fill="#5b7292" stroke="#5b7292" stroke-width="1.2" points="459.45,-424.01 457,-417.01 454.55,-424.01 459.45,-424.01"/>
<text text-anchor="middle" x="465.5" y="-435" font-family="Noto Sans CJK SC" font-size="10.00">E03</text>
</g>
<!-- ui&#45;&gt;call -->
<g id="edge8" class="edge">
<title>ui&#45;&gt;call</title>
<path fill="none" stroke="#5b7292" stroke-width="1.2" d="M551.24,-458.69C589.12,-450.52 624,-443 624,-443 624,-443 644.88,-431.85 666.29,-420.41"/>
<polygon fill="#5b7292" stroke="#5b7292" stroke-width="1.2" points="667.61,-422.48 672.63,-417.03 665.3,-418.16 667.61,-422.48"/>
<text text-anchor="middle" x="652.5" y="-435" font-family="Noto Sans CJK SC" font-size="10.00">E08</text>
</g>
<!-- ui&#45;&gt;ctx -->
<g id="edge9" class="edge">
<title>ui&#45;&gt;ctx</title>
<path fill="none" stroke="#5b7292" stroke-width="1.2" d="M498.3,-457.84C533.36,-439.88 578,-417 578,-417 578,-417 587.05,-388.03 594.26,-364.95"/>
<polygon fill="#5b7292" stroke="#5b7292" stroke-width="1.2" points="596.68,-365.43 596.43,-358.02 592.01,-363.97 596.68,-365.43"/>
<text text-anchor="middle" x="556.5" y="-435" font-family="Noto Sans CJK SC" font-size="10.00">E09</text>
</g>
<!-- ui&#45;&gt;refresh -->
<g id="edge11" class="edge">
<title>ui&#45;&gt;refresh</title>
<path fill="none" stroke="#5b7292" stroke-width="1.2" d="M401.45,-457.95C370.58,-446.25 332.07,-431.65 300.18,-419.57"/>
<polygon fill="#5b7292" stroke="#5b7292" stroke-width="1.2" points="300.9,-417.22 293.49,-417.03 299.16,-421.8 300.9,-417.22"/>
<text text-anchor="middle" x="369.5" y="-435" font-family="Noto Sans CJK SC" font-size="10.00">E11</text>
</g>
<!-- local&#45;&gt;state -->
<g id="edge2" class="edge">
<title>local&#45;&gt;state</title>
<path fill="none" stroke="#5b7292" stroke-width="1.2" d="M85,-169.63C85,-159.48 85,-147.21 85,-136.31"/>
<polygon fill="#5b7292" stroke="#5b7292" stroke-width="1.2" points="87.45,-136.01 85,-129.01 82.55,-136.01 87.45,-136.01"/>
<text text-anchor="middle" x="93.5" y="-147" font-family="Noto Sans CJK SC" font-size="10.00">E02</text>
</g>
<!-- attach&#45;&gt;check -->
<g id="edge4" class="edge">
<title>attach&#45;&gt;check</title>
<path fill="none" stroke="#5b7292" stroke-width="1.2" d="M453.44,-372.64C452.15,-364.89 451,-358 451,-358 451,-358 451,-314 451,-314 451,-314 452.27,-310.74 454.04,-306.19"/>
<polygon fill="#5b7292" stroke="#5b7292" stroke-width="1.2" points="456.44,-306.77 456.69,-299.36 451.87,-304.99 456.44,-306.77"/>
<text text-anchor="middle" x="459.5" y="-333.5" font-family="Noto Sans CJK SC" font-size="10.00">E04</text>
</g>
<!-- check&#45;&gt;draft -->
<g id="edge5" class="edge">
<title>check&#45;&gt;draft</title>
<path fill="none" stroke="#5b7292" stroke-width="1.2" d="M470.67,-254.63C473.38,-244.38 476.67,-231.98 479.58,-220.99"/>
<polygon fill="#5b7292" stroke="#5b7292" stroke-width="1.2" points="482,-221.41 481.43,-214.01 477.27,-220.15 482,-221.41"/>
<text text-anchor="middle" x="486.5" y="-232" font-family="Noto Sans CJK SC" font-size="10.00">E05</text>
</g>
<!-- draft&#45;&gt;send -->
<g id="edge6" class="edge">
<title>draft&#45;&gt;send</title>
<path fill="none" stroke="#5b7292" stroke-width="1.2" d="M490.86,-169.63C492.93,-158.17 495.49,-144.01 497.63,-132.16"/>
<polygon fill="#5b7292" stroke="#5b7292" stroke-width="1.2" points="500.07,-132.45 498.91,-125.12 495.25,-131.57 500.07,-132.45"/>
<text text-anchor="middle" x="504.5" y="-147" font-family="Noto Sans CJK SC" font-size="10.00">E06</text>
</g>
<!-- send&#45;&gt;agent -->
<g id="edge7" class="edge">
<title>send&#45;&gt;agent</title>
<path fill="none" stroke="#5b7292" stroke-width="1.2" d="M510.91,-88.8C516.65,-77.72 524.24,-63.08 530.8,-50.41"/>
<polygon fill="#5b7292" stroke="#5b7292" stroke-width="1.2" points="533.07,-51.35 534.12,-44 528.72,-49.09 533.07,-51.35"/>
<text text-anchor="middle" x="535.5" y="-62" font-family="Noto Sans CJK SC" font-size="10.00">E07</text>
</g>
<!-- ctx&#45;&gt;agent -->
<g id="edge10" class="edge">
<title>ctx&#45;&gt;agent</title>
<path fill="none" stroke="#5b7292" stroke-width="1.2" d="M603,-313.9C603,-284.69 603,-235.5 603,-235.5 603,-235.5 603,-235.5 603,-106 603,-106 581.01,-74.53 564.11,-50.34"/>
<polygon fill="#5b7292" stroke="#5b7292" stroke-width="1.2" points="565.95,-48.71 559.94,-44.37 561.94,-51.52 565.95,-48.71"/>
<text text-anchor="middle" x="611.5" y="-189.5" font-family="Noto Sans CJK SC" font-size="10.00">E10</text>
</g>
<!-- refresh&#45;&gt;data -->
<g id="edge12" class="edge">
<title>refresh&#45;&gt;data</title>
<path fill="none" stroke="#5b7292" stroke-width="1.2" d="M238,-372.99C238,-354.39 238,-327.06 238,-306.49"/>
<polygon fill="#5b7292" stroke="#5b7292" stroke-width="1.2" points="240.45,-306.24 238,-299.24 235.55,-306.24 240.45,-306.24"/>
<text text-anchor="middle" x="246.5" y="-333.5" font-family="Noto Sans CJK SC" font-size="10.00">E12</text>
</g>
<!-- data&#45;&gt;local -->
<g id="edge13" class="edge">
<title>data&#45;&gt;local</title>
<path fill="none" stroke="#5b7292" stroke-width="1.2" d="M199,-254.84C178.04,-243.48 152.11,-229.41 130.27,-217.56"/>
<polygon fill="#5b7292" stroke="#5b7292" stroke-width="1.2" points="131.25,-215.3 123.93,-214.12 128.92,-219.61 131.25,-215.3"/>
<text text-anchor="middle" x="179.5" y="-232" font-family="Noto Sans CJK SC" font-size="10.00">E13</text>
</g>
<!-- data&#45;&gt;identity -->
<g id="edge14" class="edge">
<title>data&#45;&gt;identity</title>
<path fill="none" stroke="#5b7292" stroke-width="1.2" d="M249.59,-254.63C255.25,-244.19 262.12,-231.5 268.16,-220.37"/>
<polygon fill="#5b7292" stroke="#5b7292" stroke-width="1.2" points="270.42,-221.34 271.61,-214.01 266.12,-219 270.42,-221.34"/>
<text text-anchor="middle" x="272.5" y="-232" font-family="Noto Sans CJK SC" font-size="10.00">E14</text>
</g>
<!-- ui -->
<g id="node1" class="node">
<title>ui</title>
<path fill="#eaf3ff" stroke="#3265a3" stroke-width="1.3" d="M539,-502C539,-502 375,-502 375,-502 369,-502 363,-496 363,-490 363,-490 363,-470 363,-470 363,-464 369,-458 375,-458 375,-458 539,-458 539,-458 545,-458 551,-464 551,-470 551,-470 551,-490 551,-490 551,-496 545,-502 539,-502"/>
<text text-anchor="middle" x="457" y="-483.8" font-family="Noto Sans CJK SC" font-size="14.00">组件交互入口</text>
<text text-anchor="middle" x="457" y="-468.8" font-family="Noto Sans CJK SC" font-size="14.00">当前 session / view / build</text>
</g>
<!-- local -->
<g id="node2" class="node">
<title>local</title>
<path fill="#eaf3ff" stroke="#3265a3" stroke-width="1.3" d="M138.5,-214C138.5,-214 31.5,-214 31.5,-214 25.5,-214 19.5,-208 19.5,-202 19.5,-202 19.5,-182 19.5,-182 19.5,-176 25.5,-170 31.5,-170 31.5,-170 138.5,-170 138.5,-170 144.5,-170 150.5,-176 150.5,-182 150.5,-182 150.5,-202 150.5,-202 150.5,-208 144.5,-214 138.5,-214"/>
<text text-anchor="middle" x="85" y="-195.8" font-family="Noto Sans CJK SC" font-size="14.00">排序 / 筛选 / 勾选</text>
<text text-anchor="middle" x="85" y="-180.8" font-family="Noto Sans CJK SC" font-size="14.00">React 本地状态</text>
</g>
<!-- state -->
<g id="node3" class="node">
<title>state</title>
<path fill="#fff3df" stroke="#c47724" stroke-width="1.3" d="M158,-129C158,-129 12,-129 12,-129 6,-129 0,-123 0,-117 0,-117 0,-97 0,-97 0,-91 6,-85 12,-85 12,-85 158,-85 158,-85 164,-85 170,-91 170,-97 170,-97 170,-117 170,-117 170,-123 164,-129 158,-129"/>
<text text-anchor="middle" x="85" y="-110.8" font-family="Noto Sans CJK SC" font-size="14.00">协商 UI 状态快照</text>
<text text-anchor="middle" x="85" y="-95.8" font-family="Noto Sans CJK SC" font-size="14.00">按 view 恢复 / 选择重验</text>
</g>
<!-- attach -->
<g id="node4" class="node">
<title>attach</title>
<path fill="#eaf3ff" stroke="#3265a3" stroke-width="1.3" d="M555.5,-417C555.5,-417 358.5,-417 358.5,-417 352.5,-417 346.5,-411 346.5,-405 346.5,-405 346.5,-385 346.5,-385 346.5,-379 352.5,-373 358.5,-373 358.5,-373 555.5,-373 555.5,-373 561.5,-373 567.5,-379 567.5,-385 567.5,-385 567.5,-405 567.5,-405 567.5,-411 561.5,-417 555.5,-417"/>
<text text-anchor="middle" x="457" y="-398.8" font-family="Noto Sans CJK SC" font-size="14.00">附加选择</text>
<text text-anchor="middle" x="457" y="-383.8" font-family="Noto Sans CJK SC" font-size="14.00">ResourceRef + datasetRevision</text>
</g>
<!-- check -->
<g id="node5" class="node">
<title>check</title>
<path fill="#fff3df" stroke="#c47724" stroke-width="1.3" d="M528.5,-299C528.5,-299 401.5,-299 401.5,-299 395.5,-299 389.5,-293 389.5,-287 389.5,-287 389.5,-267 389.5,-267 389.5,-261 395.5,-255 401.5,-255 401.5,-255 528.5,-255 528.5,-255 534.5,-255 540.5,-261 540.5,-267 540.5,-267 540.5,-287 540.5,-287 540.5,-293 534.5,-299 528.5,-299"/>
<text text-anchor="middle" x="465" y="-280.8" font-family="Noto Sans CJK SC" font-size="14.00">Runtime 校验 + 去重</text>
<text text-anchor="middle" x="465" y="-265.8" font-family="Noto Sans CJK SC" font-size="14.00">同会话 / 同快照</text>
</g>
<!-- draft -->
<g id="node6" class="node">
<title>draft</title>
<path fill="#eaf3ff" stroke="#3265a3" stroke-width="1.3" d="M546.5,-214C546.5,-214 427.5,-214 427.5,-214 421.5,-214 415.5,-208 415.5,-202 415.5,-202 415.5,-182 415.5,-182 415.5,-176 421.5,-170 427.5,-170 427.5,-170 546.5,-170 546.5,-170 552.5,-170 558.5,-176 558.5,-182 558.5,-182 558.5,-202 558.5,-202 558.5,-208 552.5,-214 546.5,-214"/>
<text text-anchor="middle" x="487" y="-195.8" font-family="Noto Sans CJK SC" font-size="14.00">原 DSH 输入附件区</text>
<text text-anchor="middle" x="487" y="-180.8" font-family="Noto Sans CJK SC" font-size="14.00">正文与旧附件保留</text>
</g>
<!-- send -->
<g id="node7" class="node">
<title>send</title>
<path fill="#f3f5f8" stroke="#6a778c" stroke-width="1.3" d="M551,-125C551,-125 453,-125 453,-125 447,-125 441,-119 441,-113 441,-113 441,-101 441,-101 441,-95 447,-89 453,-89 453,-89 551,-89 551,-89 557,-89 563,-95 563,-101 563,-101 563,-113 563,-113 563,-119 557,-125 551,-125"/>
<text text-anchor="middle" x="502" y="-103.3" font-family="Noto Sans CJK SC" font-size="14.00">用户手动原发送</text>
</g>
<!-- agent -->
<g id="node8" class="node">
<title>agent</title>
<path fill="#f3f5f8" stroke="#6a778c" stroke-width="1.3" d="M621,-44C621,-44 469,-44 469,-44 463,-44 457,-38 457,-32 457,-32 457,-12 457,-12 457,-6 463,0 469,0 469,0 621,0 621,0 627,0 633,-6 633,-12 633,-12 633,-32 633,-32 633,-38 627,-44 621,-44"/>
<text text-anchor="middle" x="545" y="-25.8" font-family="Noto Sans CJK SC" font-size="14.00">原 Agent 消费实际 JSON</text>
<text text-anchor="middle" x="545" y="-10.8" font-family="Noto Sans CJK SC" font-size="14.00">然后处理本条自然语言</text>
</g>
<!-- call -->
<g id="node9" class="node">
<title>call</title>
<path fill="#eaf3ff" stroke="#3265a3" stroke-width="1.3" d="M776,-417C776,-417 648,-417 648,-417 642,-417 636,-411 636,-405 636,-405 636,-385 636,-385 636,-379 642,-373 648,-373 648,-373 776,-373 776,-373 782,-373 788,-379 788,-385 788,-385 788,-405 788,-405 788,-411 782,-417 776,-417"/>
<text text-anchor="middle" x="712" y="-398.8" font-family="Noto Sans CJK SC" font-size="14.00">明确应用动作</text>
<text text-anchor="middle" x="712" y="-383.8" font-family="Noto Sans CJK SC" font-size="14.00">Runtime统一 invoke</text>
</g>
<!-- ctx -->
<g id="node10" class="node">
<title>ctx</title>
<path fill="#eaf3ff" stroke="#3265a3" stroke-width="1.3" d="M715,-358C715,-358 491,-358 491,-358 485,-358 479,-352 479,-346 479,-346 479,-326 479,-326 479,-320 485,-314 491,-314 491,-314 715,-314 715,-314 721,-314 727,-320 727,-326 727,-326 727,-346 727,-346 727,-352 721,-358 715,-358"/>
<text text-anchor="middle" x="603" y="-339.8" font-family="Noto Sans CJK SC" font-size="14.00">可选 updateContext / requestAgent</text>
<text text-anchor="middle" x="603" y="-324.8" font-family="Noto Sans CJK SC" font-size="14.00">正式原生投影 / 队列</text>
</g>
<!-- refresh -->
<g id="node11" class="node">
<title>refresh</title>
<path fill="#fff3df" stroke="#c47724" stroke-width="1.3" d="M312.5,-417C312.5,-417 163.5,-417 163.5,-417 157.5,-417 151.5,-411 151.5,-405 151.5,-405 151.5,-385 151.5,-385 151.5,-379 157.5,-373 163.5,-373 163.5,-373 312.5,-373 312.5,-373 318.5,-373 324.5,-379 324.5,-385 324.5,-385 324.5,-405 324.5,-405 324.5,-411 318.5,-417 312.5,-417"/>
<text text-anchor="middle" x="238" y="-398.8" font-family="Noto Sans CJK SC" font-size="14.00">手动或实际 worker 刷新</text>
<text text-anchor="middle" x="238" y="-383.8" font-family="Noto Sans CJK SC" font-size="14.00">仅 query / compute</text>
</g>
<!-- data -->
<g id="node12" class="node">
<title>data</title>
<path fill="#eaf3ff" stroke="#3265a3" stroke-width="1.3" d="M314,-299C314,-299 162,-299 162,-299 156,-299 150,-293 150,-287 150,-287 150,-267 150,-267 150,-261 156,-255 162,-255 162,-255 314,-255 314,-255 320,-255 326,-261 326,-267 326,-267 326,-287 326,-287 326,-293 320,-299 314,-299"/>
<text text-anchor="middle" x="238" y="-280.8" font-family="Noto Sans CJK SC" font-size="14.00">每个 binding 独立快照</text>
<text text-anchor="middle" x="238" y="-265.8" font-family="Noto Sans CJK SC" font-size="14.00">失败保旧 / 真实来源时间</text>
</g>
<!-- identity -->
<g id="node13" class="node">
<title>identity</title>
<path fill="#f3f5f8" stroke="#6a778c" stroke-width="1.3" d="M381.5,-214C381.5,-214 184.5,-214 184.5,-214 178.5,-214 172.5,-208 172.5,-202 172.5,-202 172.5,-182 172.5,-182 172.5,-176 178.5,-170 184.5,-170 184.5,-170 381.5,-170 381.5,-170 387.5,-170 393.5,-176 393.5,-182 393.5,-182 393.5,-202 393.5,-202 393.5,-208 387.5,-214 381.5,-214"/>
<text text-anchor="middle" x="283" y="-195.8" font-family="Noto Sans CJK SC" font-size="14.00">设计 / build / 保存 revision 不变</text>
<text text-anchor="middle" x="283" y="-180.8" font-family="Noto Sans CJK SC" font-size="14.00">失效选择不得按行号迁移</text>
</g>
</g>
</svg>
