<?xml version="1.0" encoding="UTF-8" standalone="no"?>
<!DOCTYPE svg PUBLIC "-//W3C//DTD SVG 1.1//EN"
 "http://www.w3.org/Graphics/SVG/1.1/DTD/svg11.dtd">
<!-- Generated by graphviz version 2.42.4 (0)
 -->
<!-- Title: G Pages: 1 -->
<svg width="389pt" height="588pt"
 viewBox="0.00 0.00 388.92 587.92" xmlns="http://www.w3.org/2000/svg" xmlns:xlink="http://www.w3.org/1999/xlink">
<g id="graph0" class="graph" transform="scale(1 1) rotate(0) translate(12.96 574.96)">
<title>G</title>
<polygon fill="white" stroke="transparent" points="-12.96,12.96 -12.96,-574.96 375.96,-574.96 375.96,12.96 -12.96,12.96"/>
<g id="clust1" class="cluster">
<title>cluster_p1</title>
<polygon fill="white" stroke="#8090a0" points="64,-296 64,-371 238,-371 238,-296 64,-296"/>
<text text-anchor="middle" x="151" y="-357.4" font-family="Noto Sans CJK SC" font-size="12.00">P1 | DSH Host 进程</text>
</g>
<g id="clust2" class="cluster">
<title>cluster_p2</title>
<polygon fill="white" stroke="#8090a0" points="8,-111 8,-268 355,-268 355,-111 8,-111"/>
<text text-anchor="middle" x="181.5" y="-254.4" font-family="Noto Sans CJK SC" font-size="12.00">P2 | 一个本机 Apps Runtime 进程</text>
</g>
<g id="clust3" class="cluster">
<title>cluster_p3</title>
<polygon fill="white" stroke="#8090a0" points="57,-399 57,-554 264,-554 264,-399 57,-399"/>
<text text-anchor="middle" x="160.5" y="-540.4" font-family="Noto Sans CJK SC" font-size="12.00">P3 | DSH Client / 浏览器渲染上下文</text>
</g>
<g id="clust4" class="cluster">
<title>cluster_p4</title>
<polygon fill="white" stroke="#8090a0" points="27,-8 27,-83 209,-83 209,-8 27,-8"/>
<text text-anchor="middle" x="118" y="-69.4" font-family="Noto Sans CJK SC" font-size="12.00">P4 | 原应用服务 / 受管业务系统</text>
</g>
<!-- p1 -->
<g id="node1" class="node">
<title>p1</title>
<path fill="#f5f7fa" stroke="#34506b" stroke-width="1.2" d="M217.5,-342C217.5,-342 84.5,-342 84.5,-342 78.5,-342 72.5,-336 72.5,-330 72.5,-330 72.5,-316 72.5,-316 72.5,-310 78.5,-304 84.5,-304 84.5,-304 217.5,-304 217.5,-304 223.5,-304 229.5,-310 229.5,-316 229.5,-316 229.5,-330 229.5,-330 229.5,-336 223.5,-342 217.5,-342"/>
<text text-anchor="middle" x="151" y="-326.2" font-family="Noto Sans CJK SC" font-size="11.00">plugin&#45;apps + N 个插件</text>
<text text-anchor="middle" x="151" y="-314.2" font-family="Noto Sans CJK SC" font-size="11.00">dsh&#45;compat / Native tools</text>
</g>
<!-- r -->
<g id="node2" class="node">
<title>r</title>
<path fill="#f5f7fa" stroke="#34506b" stroke-width="1.2" d="M241.5,-239C241.5,-239 60.5,-239 60.5,-239 54.5,-239 48.5,-233 48.5,-227 48.5,-227 48.5,-215 48.5,-215 48.5,-209 54.5,-203 60.5,-203 60.5,-203 241.5,-203 241.5,-203 247.5,-203 253.5,-209 253.5,-215 253.5,-215 253.5,-227 253.5,-227 253.5,-233 247.5,-239 241.5,-239"/>
<text text-anchor="middle" x="151" y="-218.2" font-family="Noto Sans CJK SC" font-size="11.00">Registry / Invocation / Presentation</text>
</g>
<!-- p1&#45;&gt;r -->
<g id="edge4" class="edge">
<title>p1&#45;&gt;r</title>
<path fill="none" stroke="#34506b" d="M151,-303.66C151,-287.57 151,-264.07 151,-246.4"/>
<polygon fill="#34506b" stroke="#34506b" points="153.45,-246.22 151,-239.22 148.55,-246.22 153.45,-246.22"/>
<text text-anchor="middle" x="198" y="-278.8" font-family="Noto Sans CJK SC" font-size="9.00">本机 HTTP / protocol 1</text>
</g>
<!-- p -->
<g id="node3" class="node">
<title>p</title>
<path fill="#f5f7fa" stroke="#34506b" stroke-width="1.2" d="M188,-156C188,-156 28,-156 28,-156 22,-156 16,-150 16,-144 16,-144 16,-132 16,-132 16,-126 22,-120 28,-120 28,-120 188,-120 188,-120 194,-120 200,-126 200,-132 200,-132 200,-144 200,-144 200,-150 194,-156 188,-156"/>
<text text-anchor="middle" x="108" y="-135.2" font-family="Noto Sans CJK SC" font-size="11.00">Hallmark + Notes Provider 模块</text>
</g>
<!-- r&#45;&gt;p -->
<g id="edge1" class="edge">
<title>r&#45;&gt;p</title>
<path fill="none" stroke="#34506b" d="M141.88,-202.82C135.67,-191.12 127.36,-175.47 120.53,-162.6"/>
<polygon fill="#34506b" stroke="#34506b" points="122.55,-161.19 117.11,-156.15 118.22,-163.48 122.55,-161.19"/>
<text text-anchor="middle" x="155" y="-177.8" font-family="Noto Sans CJK SC" font-size="9.00">进程内调用</text>
</g>
<!-- s -->
<g id="node4" class="node">
<title>s</title>
<path fill="#f5f7fa" stroke="#34506b" stroke-width="1.2" d="M334.5,-157C334.5,-157 237.5,-157 237.5,-157 231.5,-157 225.5,-151 225.5,-145 225.5,-145 225.5,-131 225.5,-131 225.5,-125 231.5,-119 237.5,-119 237.5,-119 334.5,-119 334.5,-119 340.5,-119 346.5,-125 346.5,-131 346.5,-131 346.5,-145 346.5,-145 346.5,-151 340.5,-157 334.5,-157"/>
<text text-anchor="middle" x="286" y="-141.2" font-family="Noto Sans CJK SC" font-size="11.00">apps.db + 构建归档</text>
<text text-anchor="middle" x="286" y="-129.2" font-family="Noto Sans CJK SC" font-size="11.00">仅 Runtime 写入</text>
</g>
<!-- r&#45;&gt;s -->
<g id="edge2" class="edge">
<title>r&#45;&gt;s</title>
<path fill="none" stroke="#34506b" d="M179.63,-202.82C200.01,-190.6 227.55,-174.07 249.5,-160.9"/>
<polygon fill="#34506b" stroke="#34506b" points="250.79,-162.98 255.54,-157.28 248.27,-158.78 250.79,-162.98"/>
<text text-anchor="middle" x="236" y="-177.8" font-family="Noto Sans CJK SC" font-size="9.00">持久化</text>
</g>
<!-- orig -->
<g id="node7" class="node">
<title>orig</title>
<path fill="#f5f7fa" stroke="#34506b" stroke-width="1.2" d="M150,-54C150,-54 66,-54 66,-54 60,-54 54,-48 54,-42 54,-42 54,-28 54,-28 54,-22 60,-16 66,-16 66,-16 150,-16 150,-16 156,-16 162,-22 162,-28 162,-28 162,-42 162,-42 162,-48 156,-54 150,-54"/>
<text text-anchor="middle" x="108" y="-38.2" font-family="Noto Sans CJK SC" font-size="11.00">Hallmark 原后端</text>
<text text-anchor="middle" x="108" y="-26.2" font-family="Noto Sans CJK SC" font-size="11.00">Notes 数据源</text>
</g>
<!-- p&#45;&gt;orig -->
<g id="edge6" class="edge">
<title>p&#45;&gt;orig</title>
<path fill="none" stroke="#34506b" d="M108,-119.87C108,-103.91 108,-79.91 108,-61.67"/>
<polygon fill="#34506b" stroke="#34506b" points="110.45,-61.24 108,-54.24 105.55,-61.24 110.45,-61.24"/>
<text text-anchor="middle" x="134" y="-93.8" font-family="Noto Sans CJK SC" font-size="9.00">原 API / SDK</text>
</g>
<!-- ui -->
<g id="node5" class="node">
<title>ui</title>
<path fill="#f5f7fa" stroke="#34506b" stroke-width="1.2" d="M209.5,-443C209.5,-443 92.5,-443 92.5,-443 86.5,-443 80.5,-437 80.5,-431 80.5,-431 80.5,-419 80.5,-419 80.5,-413 86.5,-407 92.5,-407 92.5,-407 209.5,-407 209.5,-407 215.5,-407 221.5,-413 221.5,-419 221.5,-419 221.5,-431 221.5,-431 221.5,-437 215.5,-443 209.5,-443"/>
<text text-anchor="middle" x="151" y="-422.2" font-family="Noto Sans CJK SC" font-size="11.00">Apps UI / SourceFrame</text>
</g>
<!-- ui&#45;&gt;p1 -->
<g id="edge5" class="edge">
<title>ui&#45;&gt;p1</title>
<path fill="none" stroke="#34506b" d="M151,-406.58C151,-390.82 151,-367.39 151,-349.52"/>
<polygon fill="#34506b" stroke="#34506b" points="153.45,-349.23 151,-342.23 148.55,-349.23 153.45,-349.23"/>
<text text-anchor="middle" x="188.5" y="-381.8" font-family="Noto Sans CJK SC" font-size="9.00">DSH 已有连接代理</text>
</g>
<!-- f -->
<g id="node6" class="node">
<title>f</title>
<path fill="#f5f7fa" stroke="#34506b" stroke-width="1.2" d="M191.5,-525C191.5,-525 110.5,-525 110.5,-525 104.5,-525 98.5,-519 98.5,-513 98.5,-513 98.5,-501 98.5,-501 98.5,-495 104.5,-489 110.5,-489 110.5,-489 191.5,-489 191.5,-489 197.5,-489 203.5,-495 203.5,-501 203.5,-501 203.5,-513 203.5,-513 203.5,-519 197.5,-525 191.5,-525"/>
<text text-anchor="middle" x="151" y="-504.2" font-family="Noto Sans CJK SC" font-size="11.00">源码组件 iframe</text>
</g>
<!-- f&#45;&gt;ui -->
<g id="edge3" class="edge">
<title>f&#45;&gt;ui</title>
<path fill="none" stroke="#34506b" d="M151,-488.64C151,-477.45 151,-462.74 151,-450.39"/>
<polygon fill="#34506b" stroke="#34506b" points="153.45,-450.05 151,-443.05 148.55,-450.05 153.45,-450.05"/>
<text text-anchor="middle" x="190" y="-463.8" font-family="Noto Sans CJK SC" font-size="9.00">bridge v2 / v1 适配</text>
</g>
</g>
</svg>
