<?xml version="1.0" encoding="UTF-8" standalone="no"?>
<!DOCTYPE svg PUBLIC "-//W3C//DTD SVG 1.1//EN"
 "http://www.w3.org/Graphics/SVG/1.1/DTD/svg11.dtd">
<!-- Generated by graphviz version 2.42.4 (0)
 -->
<!-- Title: G Pages: 1 -->
<svg width="440pt" height="482pt"
 viewBox="0.00 0.00 439.92 481.92" xmlns="http://www.w3.org/2000/svg" xmlns:xlink="http://www.w3.org/1999/xlink">
<g id="graph0" class="graph" transform="scale(1 1) rotate(0) translate(12.96 468.96)">
<title>G</title>
<polygon fill="white" stroke="transparent" points="-12.96,12.96 -12.96,-468.96 426.96,-468.96 426.96,12.96 -12.96,12.96"/>
<!-- a -->
<g id="node1" class="node">
<title>a</title>
<path fill="#f5f7fa" stroke="#34506b" stroke-width="1.2" d="M323,-456C323,-456 214,-456 214,-456 208,-456 202,-450 202,-444 202,-444 202,-432 202,-432 202,-426 208,-420 214,-420 214,-420 323,-420 323,-420 329,-420 335,-426 335,-432 335,-432 335,-444 335,-444 335,-450 329,-456 323,-456"/>
<text text-anchor="middle" x="268.5" y="-435.2" font-family="Noto Sans CJK SC" font-size="11.00">DSH 原生会话 / Agent</text>
</g>
<!-- b -->
<g id="node2" class="node">
<title>b</title>
<path fill="#f5f7fa" stroke="#34506b" stroke-width="1.2" d="M347,-374C347,-374 190,-374 190,-374 184,-374 178,-368 178,-362 178,-362 178,-348 178,-348 178,-342 184,-336 190,-336 190,-336 347,-336 347,-336 353,-336 359,-342 359,-348 359,-348 359,-362 359,-362 359,-368 353,-374 347,-374"/>
<text text-anchor="middle" x="268.5" y="-358.2" font-family="Noto Sans CJK SC" font-size="11.00">dsh&#45;plugin Host / Client</text>
<text text-anchor="middle" x="268.5" y="-346.2" font-family="Noto Sans CJK SC" font-size="11.00">工具 + 应用目录 + SourceFrame</text>
</g>
<!-- a&#45;&gt;b -->
<g id="edge1" class="edge">
<title>a&#45;&gt;b</title>
<path fill="none" stroke="#34506b" d="M268.5,-419.82C268.5,-408.64 268.5,-393.86 268.5,-381.35"/>
<polygon fill="#34506b" stroke="#34506b" points="270.95,-381.28 268.5,-374.28 266.05,-381.28 270.95,-381.28"/>
<text text-anchor="middle" x="309" y="-394.8" font-family="Noto Sans CJK SC" font-size="9.00">原生工具 / 界面事件</text>
</g>
<!-- c -->
<g id="node3" class="node">
<title>c</title>
<path fill="#f5f7fa" stroke="#34506b" stroke-width="1.2" d="M328.5,-290C328.5,-290 208.5,-290 208.5,-290 202.5,-290 196.5,-284 196.5,-278 196.5,-278 196.5,-264 196.5,-264 196.5,-258 202.5,-252 208.5,-252 208.5,-252 328.5,-252 328.5,-252 334.5,-252 340.5,-258 340.5,-264 340.5,-264 340.5,-278 340.5,-278 340.5,-284 334.5,-290 328.5,-290"/>
<text text-anchor="middle" x="268.5" y="-274.2" font-family="Noto Sans CJK SC" font-size="11.00">本机 Hallmark 能力服务</text>
<text text-anchor="middle" x="268.5" y="-262.2" font-family="Noto Sans CJK SC" font-size="11.00">service/main.ts</text>
</g>
<!-- b&#45;&gt;c -->
<g id="edge2" class="edge">
<title>b&#45;&gt;c</title>
<path fill="none" stroke="#34506b" d="M268.5,-335.8C268.5,-324.44 268.5,-309.66 268.5,-297.18"/>
<polygon fill="#34506b" stroke="#34506b" points="270.95,-297.15 268.5,-290.15 266.05,-297.15 270.95,-297.15"/>
<text text-anchor="middle" x="290.5" y="-310.8" font-family="Noto Sans CJK SC" font-size="9.00">HTTP 请求</text>
</g>
<!-- d -->
<g id="node4" class="node">
<title>d</title>
<path fill="#f5f7fa" stroke="#34506b" stroke-width="1.2" d="M341.5,-206C341.5,-206 195.5,-206 195.5,-206 189.5,-206 183.5,-200 183.5,-194 183.5,-194 183.5,-180 183.5,-180 183.5,-174 189.5,-168 195.5,-168 195.5,-168 341.5,-168 341.5,-168 347.5,-168 353.5,-174 353.5,-180 353.5,-180 353.5,-194 353.5,-194 353.5,-200 347.5,-206 341.5,-206"/>
<text text-anchor="middle" x="268.5" y="-190.2" font-family="Noto Sans CJK SC" font-size="11.00">AppCore</text>
<text text-anchor="middle" x="268.5" y="-178.2" font-family="Noto Sans CJK SC" font-size="11.00">业务动作 + 组件管理混合分发</text>
</g>
<!-- c&#45;&gt;d -->
<g id="edge3" class="edge">
<title>c&#45;&gt;d</title>
<path fill="none" stroke="#34506b" d="M268.5,-251.8C268.5,-240.44 268.5,-225.66 268.5,-213.18"/>
<polygon fill="#34506b" stroke="#34506b" points="270.95,-213.15 268.5,-206.15 266.05,-213.15 270.95,-213.15"/>
<text text-anchor="middle" x="282.5" y="-226.8" font-family="Noto Sans CJK SC" font-size="9.00">invoke</text>
</g>
<!-- e -->
<g id="node5" class="node">
<title>e</title>
<path fill="#f5f7fa" stroke="#34506b" stroke-width="1.2" d="M157,-122C157,-122 12,-122 12,-122 6,-122 0,-116 0,-110 0,-110 0,-96 0,-96 0,-90 6,-84 12,-84 12,-84 157,-84 157,-84 163,-84 169,-90 169,-96 169,-96 169,-110 169,-110 169,-116 163,-122 157,-122"/>
<text text-anchor="middle" x="84.5" y="-106.2" font-family="Noto Sans CJK SC" font-size="11.00">HallmarkClient / TaskBroker</text>
<text text-anchor="middle" x="84.5" y="-94.2" font-family="Noto Sans CJK SC" font-size="11.00">原后端适配</text>
</g>
<!-- d&#45;&gt;e -->
<g id="edge4" class="edge">
<title>d&#45;&gt;e</title>
<path fill="none" stroke="#34506b" d="M227.66,-167.8C199.22,-155.12 161.2,-138.18 131.49,-124.94"/>
<polygon fill="#34506b" stroke="#34506b" points="132.3,-122.62 124.9,-122.01 130.3,-127.09 132.3,-122.62"/>
<text text-anchor="middle" x="207" y="-142.8" font-family="Noto Sans CJK SC" font-size="9.00">业务调用</text>
</g>
<!-- f -->
<g id="node6" class="node">
<title>f</title>
<path fill="#f5f7fa" stroke="#34506b" stroke-width="1.2" d="M331,-122C331,-122 206,-122 206,-122 200,-122 194,-116 194,-110 194,-110 194,-96 194,-96 194,-90 200,-84 206,-84 206,-84 331,-84 331,-84 337,-84 343,-90 343,-96 343,-96 343,-110 343,-110 343,-116 337,-122 331,-122"/>
<text text-anchor="middle" x="268.5" y="-106.2" font-family="Noto Sans CJK SC" font-size="11.00">PresentationManager</text>
<text text-anchor="middle" x="268.5" y="-94.2" font-family="Noto Sans CJK SC" font-size="11.00">SourceComponentStore</text>
</g>
<!-- d&#45;&gt;f -->
<g id="edge5" class="edge">
<title>d&#45;&gt;f</title>
<path fill="none" stroke="#34506b" d="M268.5,-167.8C268.5,-156.44 268.5,-141.66 268.5,-129.18"/>
<polygon fill="#34506b" stroke="#34506b" points="270.95,-129.15 268.5,-122.15 266.05,-129.15 270.95,-129.15"/>
<text text-anchor="middle" x="287" y="-142.8" font-family="Noto Sans CJK SC" font-size="9.00">展示调用</text>
</g>
<!-- g -->
<g id="node7" class="node">
<title>g</title>
<path fill="#f5f7fa" stroke="#34506b" stroke-width="1.2" d="M402,-38C402,-38 289,-38 289,-38 283,-38 277,-32 277,-26 277,-26 277,-12 277,-12 277,-6 283,0 289,0 289,0 402,0 402,0 408,0 414,-6 414,-12 414,-12 414,-26 414,-26 414,-32 408,-38 402,-38"/>
<text text-anchor="middle" x="345.5" y="-22.2" font-family="Noto Sans CJK SC" font-size="11.00">AppStore / app.db</text>
<text text-anchor="middle" x="345.5" y="-10.2" font-family="Noto Sans CJK SC" font-size="11.00">SCHEMA_VERSION = 2</text>
</g>
<!-- d&#45;&gt;g -->
<g id="edge6" class="edge">
<title>d&#45;&gt;g</title>
<path fill="none" stroke="#34506b" d="M293.2,-167.83C318.92,-148.91 355.5,-122 355.5,-122 355.5,-122 364.5,-66 364.5,-66 364.5,-66 364.5,-56 364.5,-56 364.5,-56 361.91,-51.09 358.64,-44.91"/>
<polygon fill="#34506b" stroke="#34506b" points="360.66,-43.47 355.22,-38.42 356.32,-45.76 360.66,-43.47"/>
<text text-anchor="middle" x="380" y="-100.8" font-family="Noto Sans CJK SC" font-size="9.00">读写状态</text>
</g>
<!-- h -->
<g id="node8" class="node">
<title>h</title>
<path fill="#f5f7fa" stroke="#34506b" stroke-width="1.2" d="M127.5,-38C127.5,-38 41.5,-38 41.5,-38 35.5,-38 29.5,-32 29.5,-26 29.5,-26 29.5,-12 29.5,-12 29.5,-6 35.5,0 41.5,0 41.5,0 127.5,0 127.5,0 133.5,0 139.5,-6 139.5,-12 139.5,-12 139.5,-26 139.5,-26 139.5,-32 133.5,-38 127.5,-38"/>
<text text-anchor="middle" x="84.5" y="-22.2" font-family="Noto Sans CJK SC" font-size="11.00">原 Hallmark 后端</text>
<text text-anchor="middle" x="84.5" y="-10.2" font-family="Noto Sans CJK SC" font-size="11.00">业务事实来源</text>
</g>
<!-- e&#45;&gt;h -->
<g id="edge8" class="edge">
<title>e&#45;&gt;h</title>
<path fill="none" stroke="#34506b" d="M84.5,-83.8C84.5,-72.44 84.5,-57.66 84.5,-45.18"/>
<polygon fill="#34506b" stroke="#34506b" points="86.95,-45.15 84.5,-38.15 82.05,-45.15 86.95,-45.15"/>
<text text-anchor="middle" x="106.5" y="-58.8" font-family="Noto Sans CJK SC" font-size="9.00">已适配 API</text>
</g>
<!-- f&#45;&gt;g -->
<g id="edge7" class="edge">
<title>f&#45;&gt;g</title>
<path fill="none" stroke="#34506b" d="M285.59,-83.8C296.75,-71.91 311.44,-56.27 323.48,-43.45"/>
<polygon fill="#34506b" stroke="#34506b" points="325.45,-44.93 328.46,-38.15 321.88,-41.57 325.45,-44.93"/>
<text text-anchor="middle" x="335.5" y="-58.8" font-family="Noto Sans CJK SC" font-size="9.00">组件与绑定</text>
</g>
</g>
</svg>
