<?xml version="1.0" encoding="UTF-8" standalone="no"?>
<!DOCTYPE svg PUBLIC "-//W3C//DTD SVG 1.1//EN"
 "http://www.w3.org/Graphics/SVG/1.1/DTD/svg11.dtd">
<!-- Generated by graphviz version 2.42.4 (0)
 -->
<!-- Title: G Pages: 1 -->
<svg width="346pt" height="462pt"
 viewBox="0.00 0.00 346.42 461.92" xmlns="http://www.w3.org/2000/svg" xmlns:xlink="http://www.w3.org/1999/xlink">
<g id="graph0" class="graph" transform="scale(1 1) rotate(0) translate(12.96 448.96)">
<title>G</title>
<polygon fill="white" stroke="transparent" points="-12.96,12.96 -12.96,-448.96 333.46,-448.96 333.46,12.96 -12.96,12.96"/>
<!-- old -->
<g id="node1" class="node">
<title>old</title>
<path fill="#f5f7fa" stroke="#34506b" stroke-width="1.2" d="M217.5,-436C217.5,-436 89.5,-436 89.5,-436 83.5,-436 77.5,-430 77.5,-424 77.5,-424 77.5,-410 77.5,-410 77.5,-404 83.5,-398 89.5,-398 89.5,-398 217.5,-398 217.5,-398 223.5,-398 229.5,-404 229.5,-410 229.5,-410 229.5,-424 229.5,-424 229.5,-430 223.5,-436 217.5,-436"/>
<text text-anchor="middle" x="153.5" y="-420.2" font-family="Noto Sans CJK SC" font-size="11.00">旧 app.db + 源码构建目录</text>
<text text-anchor="middle" x="153.5" y="-408.2" font-family="Noto Sans CJK SC" font-size="11.00">基线 v2</text>
</g>
<!-- freeze -->
<g id="node2" class="node">
<title>freeze</title>
<path fill="#f5f7fa" stroke="#34506b" stroke-width="1.2" d="M216,-361C216,-361 91,-361 91,-361 85,-361 79,-355 79,-349 79,-349 79,-335 79,-335 79,-329 85,-323 91,-323 91,-323 216,-323 216,-323 222,-323 228,-329 228,-335 228,-335 228,-349 228,-349 228,-355 222,-361 216,-361"/>
<text text-anchor="middle" x="153.5" y="-345.2" font-family="Noto Sans CJK SC" font-size="11.00">1 停止新入口 + 排空</text>
<text text-anchor="middle" x="153.5" y="-333.2" font-family="Noto Sans CJK SC" font-size="11.00">盘点 pending / unknown</text>
</g>
<!-- old&#45;&gt;freeze -->
<g id="edge1" class="edge">
<title>old&#45;&gt;freeze</title>
<path fill="none" stroke="#34506b" d="M153.5,-397.96C153.5,-389.01 153.5,-378.05 153.5,-368.28"/>
<polygon fill="#34506b" stroke="#34506b" points="155.95,-368.09 153.5,-361.09 151.05,-368.09 155.95,-368.09"/>
</g>
<!-- backup -->
<g id="node3" class="node">
<title>backup</title>
<path fill="#f5f7fa" stroke="#34506b" stroke-width="1.2" d="M221.5,-286C221.5,-286 85.5,-286 85.5,-286 79.5,-286 73.5,-280 73.5,-274 73.5,-274 73.5,-260 73.5,-260 73.5,-254 79.5,-248 85.5,-248 85.5,-248 221.5,-248 221.5,-248 227.5,-248 233.5,-254 233.5,-260 233.5,-260 233.5,-274 233.5,-274 233.5,-280 227.5,-286 221.5,-286"/>
<text text-anchor="middle" x="153.5" y="-270.2" font-family="Noto Sans CJK SC" font-size="11.00">2 一致备份与完整 manifest</text>
<text text-anchor="middle" x="153.5" y="-258.2" font-family="Noto Sans CJK SC" font-size="11.00">数据库 + 构建 + 配置映射</text>
</g>
<!-- freeze&#45;&gt;backup -->
<g id="edge2" class="edge">
<title>freeze&#45;&gt;backup</title>
<path fill="none" stroke="#34506b" d="M153.5,-322.96C153.5,-314.01 153.5,-303.05 153.5,-293.28"/>
<polygon fill="#34506b" stroke="#34506b" points="155.95,-293.09 153.5,-286.09 151.05,-293.09 155.95,-293.09"/>
</g>
<!-- dry -->
<g id="node4" class="node">
<title>dry</title>
<path fill="#f5f7fa" stroke="#34506b" stroke-width="1.2" d="M211,-211C211,-211 96,-211 96,-211 90,-211 84,-205 84,-199 84,-199 84,-185 84,-185 84,-179 90,-173 96,-173 96,-173 211,-173 211,-173 217,-173 223,-179 223,-185 223,-185 223,-199 223,-199 223,-205 217,-211 211,-211"/>
<text text-anchor="middle" x="153.5" y="-195.2" font-family="Noto Sans CJK SC" font-size="11.00">3 离线副本迁移</text>
<text text-anchor="middle" x="153.5" y="-183.2" font-family="Noto Sans CJK SC" font-size="11.00">逐表计数 / 旧新 ID 映射</text>
</g>
<!-- backup&#45;&gt;dry -->
<g id="edge3" class="edge">
<title>backup&#45;&gt;dry</title>
<path fill="none" stroke="#34506b" d="M153.5,-247.96C153.5,-239.01 153.5,-228.05 153.5,-218.28"/>
<polygon fill="#34506b" stroke="#34506b" points="155.95,-218.09 153.5,-211.09 151.05,-218.09 155.95,-218.09"/>
</g>
<!-- gate -->
<g id="node5" class="node">
<title>gate</title>
<path fill="#f5f7fa" stroke="#34506b" stroke-width="1.2" d="M141.98,-132.64C141.98,-132.64 76.02,-113.36 76.02,-113.36 70.26,-111.68 70.26,-108.32 76.02,-106.64 76.02,-106.64 141.98,-87.36 141.98,-87.36 147.74,-85.68 159.26,-85.68 165.02,-87.36 165.02,-87.36 230.98,-106.64 230.98,-106.64 236.74,-108.32 236.74,-111.68 230.98,-113.36 230.98,-113.36 165.02,-132.64 165.02,-132.64 159.26,-134.32 147.74,-134.32 141.98,-132.64"/>
<text text-anchor="middle" x="153.5" y="-107.2" font-family="Noto Sans CJK SC" font-size="11.00">4 校验通过？</text>
</g>
<!-- dry&#45;&gt;gate -->
<g id="edge4" class="edge">
<title>dry&#45;&gt;gate</title>
<path fill="none" stroke="#34506b" d="M153.5,-172.85C153.5,-164.09 153.5,-153.32 153.5,-143.24"/>
<polygon fill="#34506b" stroke="#34506b" points="155.95,-143.06 153.5,-136.06 151.05,-143.06 155.95,-143.06"/>
</g>
<!-- new -->
<g id="node6" class="node">
<title>new</title>
<path fill="#f5f7fa" stroke="#34506b" stroke-width="1.2" d="M123,-38C123,-38 12,-38 12,-38 6,-38 0,-32 0,-26 0,-26 0,-12 0,-12 0,-6 6,0 12,0 12,0 123,0 123,0 129,0 135,-6 135,-12 135,-12 135,-26 135,-26 135,-32 129,-38 123,-38"/>
<text text-anchor="middle" x="67.5" y="-22.2" font-family="Noto Sans CJK SC" font-size="11.00">5 新 apps.db 唯一写入</text>
<text text-anchor="middle" x="67.5" y="-10.2" font-family="Noto Sans CJK SC" font-size="11.00">原库只读保留</text>
</g>
<!-- gate&#45;&gt;new -->
<g id="edge5" class="edge">
<title>gate&#45;&gt;new</title>
<path fill="none" stroke="#34506b" d="M134.41,-89.25C121.28,-75.66 103.78,-57.55 89.97,-43.26"/>
<polygon fill="#34506b" stroke="#34506b" points="91.69,-41.51 85.07,-38.18 88.17,-44.92 91.69,-41.51"/>
<text text-anchor="middle" x="142.5" y="-58.8" font-family="Noto Sans CJK SC" font-size="9.00">通过且批准切换</text>
</g>
<!-- stop -->
<g id="node7" class="node">
<title>stop</title>
<path fill="#fff4df" stroke="#34506b" stroke-width="1.2" d="M308.5,-38C308.5,-38 172.5,-38 172.5,-38 166.5,-38 160.5,-32 160.5,-26 160.5,-26 160.5,-12 160.5,-12 160.5,-6 166.5,0 172.5,0 172.5,0 308.5,0 308.5,0 314.5,0 320.5,-6 320.5,-12 320.5,-12 320.5,-26 320.5,-26 320.5,-32 314.5,-38 308.5,-38"/>
<text text-anchor="middle" x="240.5" y="-22.2" font-family="Noto Sans CJK SC" font-size="11.00">停止切换</text>
<text text-anchor="middle" x="240.5" y="-10.2" font-family="Noto Sans CJK SC" font-size="11.00">保留旧系统状态与失败证据</text>
</g>
<!-- gate&#45;&gt;stop -->
<g id="edge6" class="edge">
<title>gate&#45;&gt;stop</title>
<path fill="none" stroke="#34506b" d="M172.81,-89.25C186.09,-75.66 203.8,-57.55 217.76,-43.26"/>
<polygon fill="#34506b" stroke="#34506b" points="219.59,-44.9 222.73,-38.18 216.08,-41.47 219.59,-44.9"/>
<text text-anchor="middle" x="245" y="-58.8" font-family="Noto Sans CJK SC" font-size="9.00">缺证据 / 未解析映射</text>
</g>
</g>
</svg>
