<?xml version="1.0" encoding="UTF-8" standalone="no"?>
<!DOCTYPE svg PUBLIC "-//W3C//DTD SVG 1.1//EN"
 "http://www.w3.org/Graphics/SVG/1.1/DTD/svg11.dtd">
<!-- Generated by graphviz version 2.42.4 (0)
 -->
<!-- Title: G Pages: 1 -->
<svg width="234pt" height="568pt"
 viewBox="0.00 0.00 233.92 567.92" xmlns="http://www.w3.org/2000/svg" xmlns:xlink="http://www.w3.org/1999/xlink">
<g id="graph0" class="graph" transform="scale(1 1) rotate(0) translate(12.96 554.96)">
<title>G</title>
<polygon fill="white" stroke="transparent" points="-12.96,12.96 -12.96,-554.96 220.96,-554.96 220.96,12.96 -12.96,12.96"/>
<!-- a -->
<g id="node1" class="node">
<title>a</title>
<path fill="#f5f7fa" stroke="#34506b" stroke-width="1.2" d="M157.5,-542C157.5,-542 50.5,-542 50.5,-542 44.5,-542 38.5,-536 38.5,-530 38.5,-530 38.5,-516 38.5,-516 38.5,-510 44.5,-504 50.5,-504 50.5,-504 157.5,-504 157.5,-504 163.5,-504 169.5,-510 169.5,-516 169.5,-516 169.5,-530 169.5,-530 169.5,-536 163.5,-542 157.5,-542"/>
<text text-anchor="middle" x="104" y="-526.2" font-family="Noto Sans CJK SC" font-size="11.00">1 入口</text>
<text text-anchor="middle" x="104" y="-514.2" font-family="Noto Sans CJK SC" font-size="11.00">原生工具 / SDK / 组件</text>
</g>
<!-- b -->
<g id="node2" class="node">
<title>b</title>
<path fill="#f5f7fa" stroke="#34506b" stroke-width="1.2" d="M179.5,-458C179.5,-458 28.5,-458 28.5,-458 22.5,-458 16.5,-452 16.5,-446 16.5,-446 16.5,-432 16.5,-432 16.5,-426 22.5,-420 28.5,-420 28.5,-420 179.5,-420 179.5,-420 185.5,-420 191.5,-426 191.5,-432 191.5,-432 191.5,-446 191.5,-446 191.5,-452 185.5,-458 179.5,-458"/>
<text text-anchor="middle" x="104" y="-442.2" font-family="Noto Sans CJK SC" font-size="11.00">2 Host 或 SDK 绑定调用上下文</text>
<text text-anchor="middle" x="104" y="-430.2" font-family="Noto Sans CJK SC" font-size="11.00">source · sessionId · traceId</text>
</g>
<!-- a&#45;&gt;b -->
<g id="edge1" class="edge">
<title>a&#45;&gt;b</title>
<path fill="none" stroke="#34506b" d="M104,-503.8C104,-492.44 104,-477.66 104,-465.18"/>
<polygon fill="#34506b" stroke="#34506b" points="106.45,-465.15 104,-458.15 101.55,-465.15 106.45,-465.15"/>
<text text-anchor="middle" x="113.5" y="-478.8" font-family="Noto Sans CJK SC" font-size="9.00">请求</text>
</g>
<!-- c -->
<g id="node3" class="node">
<title>c</title>
<path fill="#f5f7fa" stroke="#34506b" stroke-width="1.2" d="M182.5,-374C182.5,-374 25.5,-374 25.5,-374 19.5,-374 13.5,-368 13.5,-362 13.5,-362 13.5,-348 13.5,-348 13.5,-342 19.5,-336 25.5,-336 25.5,-336 182.5,-336 182.5,-336 188.5,-336 194.5,-342 194.5,-348 194.5,-348 194.5,-362 194.5,-362 194.5,-368 188.5,-374 182.5,-374"/>
<text text-anchor="middle" x="104" y="-358.2" font-family="Noto Sans CJK SC" font-size="11.00">3 Runtime 解析连接与能力版本</text>
<text text-anchor="middle" x="104" y="-346.2" font-family="Noto Sans CJK SC" font-size="11.00">验证输入 / deadline</text>
</g>
<!-- b&#45;&gt;c -->
<g id="edge2" class="edge">
<title>b&#45;&gt;c</title>
<path fill="none" stroke="#34506b" d="M104,-419.8C104,-408.44 104,-393.66 104,-381.18"/>
<polygon fill="#34506b" stroke="#34506b" points="106.45,-381.15 104,-374.15 101.55,-381.15 106.45,-381.15"/>
<text text-anchor="middle" x="143.5" y="-394.8" font-family="Noto Sans CJK SC" font-size="9.00">InvocationRequest</text>
</g>
<!-- d -->
<g id="node4" class="node">
<title>d</title>
<path fill="#f5f7fa" stroke="#34506b" stroke-width="1.2" d="M196,-290C196,-290 12,-290 12,-290 6,-290 0,-284 0,-278 0,-278 0,-264 0,-264 0,-258 6,-252 12,-252 12,-252 196,-252 196,-252 202,-252 208,-258 208,-264 208,-264 208,-278 208,-278 208,-284 202,-290 196,-290"/>
<text text-anchor="middle" x="104" y="-274.2" font-family="Noto Sans CJK SC" font-size="11.00">4 变更：持久化幂等键与 operationId</text>
<text text-anchor="middle" x="104" y="-262.2" font-family="Noto Sans CJK SC" font-size="11.00">查询：记录 invocation</text>
</g>
<!-- c&#45;&gt;d -->
<g id="edge3" class="edge">
<title>c&#45;&gt;d</title>
<path fill="none" stroke="#34506b" d="M104,-335.8C104,-324.44 104,-309.66 104,-297.18"/>
<polygon fill="#34506b" stroke="#34506b" points="106.45,-297.15 104,-290.15 101.55,-297.15 106.45,-297.15"/>
<text text-anchor="middle" x="122.5" y="-310.8" font-family="Noto Sans CJK SC" font-size="9.00">解析成功</text>
</g>
<!-- e -->
<g id="node5" class="node">
<title>e</title>
<path fill="#f5f7fa" stroke="#34506b" stroke-width="1.2" d="M155,-206C155,-206 53,-206 53,-206 47,-206 41,-200 41,-194 41,-194 41,-180 41,-180 41,-174 47,-168 53,-168 53,-168 155,-168 155,-168 161,-168 167,-174 167,-180 167,-180 167,-194 167,-194 167,-200 161,-206 155,-206"/>
<text text-anchor="middle" x="104" y="-190.2" font-family="Noto Sans CJK SC" font-size="11.00">5 Provider execute</text>
<text text-anchor="middle" x="104" y="-178.2" font-family="Noto Sans CJK SC" font-size="11.00">复用原后端适配实现</text>
</g>
<!-- d&#45;&gt;e -->
<g id="edge4" class="edge">
<title>d&#45;&gt;e</title>
<path fill="none" stroke="#34506b" d="M104,-251.8C104,-240.44 104,-225.66 104,-213.18"/>
<polygon fill="#34506b" stroke="#34506b" points="106.45,-213.15 104,-206.15 101.55,-213.15 106.45,-213.15"/>
<text text-anchor="middle" x="122.5" y="-226.8" font-family="Noto Sans CJK SC" font-size="9.00">允许分发</text>
</g>
<!-- f -->
<g id="node6" class="node">
<title>f</title>
<path fill="#f5f7fa" stroke="#34506b" stroke-width="1.2" d="M181.5,-122C181.5,-122 26.5,-122 26.5,-122 20.5,-122 14.5,-116 14.5,-110 14.5,-110 14.5,-96 14.5,-96 14.5,-90 20.5,-84 26.5,-84 26.5,-84 181.5,-84 181.5,-84 187.5,-84 193.5,-90 193.5,-96 193.5,-96 193.5,-110 193.5,-110 193.5,-116 187.5,-122 181.5,-122"/>
<text text-anchor="middle" x="104" y="-106.2" font-family="Noto Sans CJK SC" font-size="11.00">6 结果解释 / 必要时 inspect</text>
<text text-anchor="middle" x="104" y="-94.2" font-family="Noto Sans CJK SC" font-size="11.00">不能以 HTTP 200 代替业务完成</text>
</g>
<!-- e&#45;&gt;f -->
<g id="edge5" class="edge">
<title>e&#45;&gt;f</title>
<path fill="none" stroke="#34506b" d="M104,-167.8C104,-156.44 104,-141.66 104,-129.18"/>
<polygon fill="#34506b" stroke="#34506b" points="106.45,-129.15 104,-122.15 101.55,-129.15 106.45,-129.15"/>
<text text-anchor="middle" x="122.5" y="-142.8" font-family="Noto Sans CJK SC" font-size="9.00">原始证据</text>
</g>
<!-- g -->
<g id="node7" class="node">
<title>g</title>
<path fill="#f5f7fa" stroke="#34506b" stroke-width="1.2" d="M174,-38C174,-38 34,-38 34,-38 28,-38 22,-32 22,-26 22,-26 22,-12 22,-12 22,-6 28,0 34,0 34,0 174,0 174,0 180,0 186,-6 186,-12 186,-12 186,-26 186,-26 186,-32 180,-38 174,-38"/>
<text text-anchor="middle" x="104" y="-22.2" font-family="Noto Sans CJK SC" font-size="11.00">7 持久化结果 / Schema 校验</text>
<text text-anchor="middle" x="104" y="-10.2" font-family="Noto Sans CJK SC" font-size="11.00">完整数据 + 受限模型摘要</text>
</g>
<!-- f&#45;&gt;g -->
<g id="edge6" class="edge">
<title>f&#45;&gt;g</title>
<path fill="none" stroke="#34506b" d="M104,-83.8C104,-72.44 104,-57.66 104,-45.18"/>
<polygon fill="#34506b" stroke="#34506b" points="106.45,-45.15 104,-38.15 101.55,-45.15 106.45,-45.15"/>
<text text-anchor="middle" x="136" y="-58.8" font-family="Noto Sans CJK SC" font-size="9.00">明确或未知结果</text>
</g>
</g>
</svg>
